<svg xmlns="http://www.w3.org/2000/svg" xmlns:xlink="http://www.w3.org/1999/xlink" width="295" height="620" viewBox="0 0 295 620">
  <defs>
    <clipPath id="clip-path">
      <rect id="Rectángulo_339886" data-name="Rectángulo 339886" width="295" height="620" rx="10" transform="translate(945 -210)" fill="#ecf7f4"/>
    </clipPath>
    <clipPath id="clip-path-2">
      <rect id="Rectángulo_341227" data-name="Rectángulo 341227" width="129.997" height="564.057" fill="none"/>
    </clipPath>
  </defs>
  <g id="_16" data-name="16" transform="translate(-180 -7699)">
    <rect id="Rectángulo_341228" data-name="Rectángulo 341228" width="295" height="620" rx="10" transform="translate(180 7699)" fill="#fdf8e4"/>
    <g id="Enmascarar_grupo_927225" data-name="Enmascarar grupo 927225" transform="translate(-765 7909)" opacity="0.5" clip-path="url(#clip-path)">
      <g id="Grupo_957582" data-name="Grupo 957582" transform="translate(-78.729 144.139)">
        <path id="Trazado_725166" data-name="Trazado 725166" d="M1281.338,0V262.759H1.15V80.116c39.925-8.714,84-9.753,124.98-4.7,33.387,4.117,65.648,11.48,97.482,20.143.239.078.478.143.734.208,16.182,4.429,32.261,9.195,48.323,14.052,29.274,8.844,58.462,17.974,88.111,25.857,219.953,58.493,471.041,45.519,678.585-35.052C1121.024,68.935,1197.75,26.883,1281.338,0" transform="translate(68.391 41.119)" fill="#34bc85" opacity="0.1"/>
        <path id="Trazado_725167" data-name="Trazado 725167" d="M1350.88,0V267.323H1.15V81.508c42.094-8.866,88.56-9.923,131.77-4.783,35.2,4.188,69.214,11.68,102.777,20.493.252.079.5.145.774.211,17.061,4.505,34.013,9.354,50.948,14.3,30.864,9,61.638,18.286,92.9,26.306,231.9,59.509,496.628,46.31,715.447-35.661C1181.858,70.132,1262.751,27.35,1350.88,0" transform="translate(-1.15)" fill="#34bc85" opacity="0.1"/>
      </g>
    </g>
    <g id="Grupo_965580" data-name="Grupo 965580" transform="translate(263 7727)">
      <g id="Grupo_965580-2" data-name="Grupo 965580" clip-path="url(#clip-path-2)">
        <rect id="Rectángulo_341220" data-name="Rectángulo 341220" width="129.997" height="129.996" rx="8.266" transform="translate(0 145.179)" fill="#7e8589"/>
        <path id="Rectángulo_341221" data-name="Rectángulo 341221" d="M7.05,0h96.79a7.051,7.051,0,0,1,7.051,7.051V103.84a7.052,7.052,0,0,1-7.052,7.052H7.05A7.05,7.05,0,0,1,0,103.842V7.05A7.05,7.05,0,0,1,7.05,0Z" transform="translate(9.553 154.731)" fill="#c8d2d6"/>
        <path id="Trazado_730022" data-name="Trazado 730022" d="M89.737,119.339c-6.423.377-7.553,6.8-13.274,6.53s-8.794-6.582-14.837-6.153-7.452,5.828-13.115,6.153-6.961-6.475-13.488-6.53-9.878,7.286-14.248,6.8-4.7-2.266-7.609-4.856a7.73,7.73,0,0,0-6.8-1.457V202.41a10.184,10.184,0,0,0,10.185,10.185h90.521a10.184,10.184,0,0,0,10.186-10.185V119.324c-6.964.147-6.071,6.166-13.681,6.247s-7.42-6.608-13.84-6.233" transform="translate(2.83 53.029)" fill="#95dee5"/>
        <path id="Trazado_730023" data-name="Trazado 730023" d="M68.571,157.619a3.845,3.845,0,1,0,3.846-3.846,3.847,3.847,0,0,0-3.846,3.846" transform="translate(30.474 68.339)" fill="#a84020"/>
        <path id="Trazado_730024" data-name="Trazado 730024" d="M38.53,170.009a3.844,3.844,0,1,0,3.845-3.846,3.845,3.845,0,0,0-3.845,3.846" transform="translate(17.123 73.845)" fill="#a84020"/>
        <path id="Trazado_730025" data-name="Trazado 730025" d="M18.772,155.971a3.844,3.844,0,1,0,3.844-3.845,3.845,3.845,0,0,0-3.844,3.845" transform="translate(8.343 67.607)" fill="#a84020"/>
        <path id="Trazado_730026" data-name="Trazado 730026" d="M57.694,164.191a2.554,2.554,0,1,0,2.555-2.552,2.555,2.555,0,0,0-2.555,2.552" transform="translate(25.64 71.835)" fill="#a84020"/>
        <path id="Trazado_730027" data-name="Trazado 730027" d="M30.54,162.423a2.554,2.554,0,1,0,2.552-2.552,2.553,2.553,0,0,0-2.552,2.552" transform="translate(13.572 71.049)" fill="#a84020"/>
        <path id="Trazado_730028" data-name="Trazado 730028" d="M61.094,153.366a1.374,1.374,0,1,0,1.375-1.375,1.376,1.376,0,0,0-1.375,1.375" transform="translate(27.151 67.547)" fill="#a84020"/>
        <path id="Trazado_730029" data-name="Trazado 730029" d="M67.061,169.163a1.373,1.373,0,1,0,1.374-1.374,1.373,1.373,0,0,0-1.374,1.374" transform="translate(29.803 74.568)" fill="#a84020"/>
        <path id="Trazado_730030" data-name="Trazado 730030" d="M37.579,152.55a1.373,1.373,0,1,0,1.371-1.375,1.371,1.371,0,0,0-1.371,1.375" transform="translate(16.701 67.184)" fill="#a84020"/>
        <path id="Trazado_730031" data-name="Trazado 730031" d="M45.648,162.062a1.375,1.375,0,1,0,1.378-1.377,1.376,1.376,0,0,0-1.378,1.377" transform="translate(20.287 71.411)" fill="#a84020"/>
        <path id="Trazado_730032" data-name="Trazado 730032" d="M53.621,170.764a1.374,1.374,0,1,0,1.372-1.376,1.373,1.373,0,0,0-1.372,1.376" transform="translate(23.83 75.278)" fill="#a84020"/>
        <path id="Trazado_730033" data-name="Trazado 730033" d="M24.695,170.117a1.372,1.372,0,1,0,1.369-1.377,1.37,1.37,0,0,0-1.369,1.377" transform="translate(10.975 74.99)" fill="#a84020"/>
        <path id="Trazado_730034" data-name="Trazado 730034" d="M10.983,155.211a1.373,1.373,0,1,0,1.372-1.375,1.372,1.372,0,0,0-1.372,1.375" transform="translate(4.881 68.367)" fill="#a84020"/>
        <path id="Trazado_730035" data-name="Trazado 730035" d="M77.515,154.2a1.374,1.374,0,1,0,1.375-1.374,1.376,1.376,0,0,0-1.375,1.374" transform="translate(34.449 67.916)" fill="#a84020"/>
        <path id="Trazado_730036" data-name="Trazado 730036" d="M48.946,153.807a2.552,2.552,0,1,0,2.551-2.555,2.553,2.553,0,0,0-2.551,2.555" transform="translate(21.752 67.218)" fill="#a84020"/>
        <path id="Trazado_730037" data-name="Trazado 730037" d="M13.381,167.7a2.553,2.553,0,1,0,2.554-2.552,2.555,2.555,0,0,0-2.554,2.552" transform="translate(5.947 73.395)" fill="#a84020"/>
        <path id="Trazado_730038" data-name="Trazado 730038" d="M74.933,167.7a2.552,2.552,0,1,0,2.552-2.552,2.551,2.551,0,0,0-2.552,2.552" transform="translate(33.301 73.395)" fill="#a84020"/>
        <path id="Trazado_730039" data-name="Trazado 730039" d="M6.613,132.613a7.73,7.73,0,0,1,6.8,1.457c2.913,2.59,3.238,4.371,7.611,4.858s7.715-6.854,14.245-6.8,7.824,6.852,13.491,6.529,7.068-5.721,13.111-6.15,9.119,5.88,14.84,6.15,6.852-6.15,13.276-6.529,6.231,6.314,13.84,6.233,6.717-6.1,13.679-6.247" transform="translate(2.939 58.713)" fill="none" stroke="#79c3e0" stroke-linecap="round" stroke-linejoin="round" stroke-width="1.503"/>
        <path id="Trazado_730040" data-name="Trazado 730040" d="M6.613,141.366a7.725,7.725,0,0,1,6.8,1.457c2.913,2.59,3.238,4.371,7.611,4.858s7.715-6.852,14.245-6.8,7.824,6.852,13.491,6.529,7.068-5.721,13.111-6.152,9.119,5.882,14.84,6.152,6.852-6.152,13.276-6.529,6.231,6.314,13.84,6.233,6.717-6.1,13.679-6.247" transform="translate(2.939 62.603)" fill="none" stroke="#79c3e0" stroke-linecap="round" stroke-linejoin="round" stroke-width="1.503"/>
        <path id="Trazado_730041" data-name="Trazado 730041" d="M24.2,162.5a3.846,3.846,0,1,1-3.846-3.845A3.847,3.847,0,0,1,24.2,162.5" transform="translate(7.335 70.509)" fill="#ce5a2e"/>
        <path id="Trazado_730042" data-name="Trazado 730042" d="M54.237,174.893a3.845,3.845,0,1,1-3.845-3.845,3.845,3.845,0,0,1,3.845,3.845" transform="translate(20.686 76.016)" fill="#ce5a2e"/>
        <path id="Trazado_730043" data-name="Trazado 730043" d="M73.994,160.855a3.844,3.844,0,1,1-3.844-3.845,3.845,3.845,0,0,1,3.844,3.845" transform="translate(29.467 69.777)" fill="#ce5a2e"/>
        <path id="Trazado_730044" data-name="Trazado 730044" d="M34.276,169.075a2.554,2.554,0,1,1-2.554-2.554,2.555,2.555,0,0,1,2.554,2.554" transform="translate(12.963 74.004)" fill="#ce5a2e"/>
        <path id="Trazado_730045" data-name="Trazado 730045" d="M61.431,167.307a2.554,2.554,0,1,1-2.554-2.552,2.555,2.555,0,0,1,2.554,2.552" transform="translate(25.031 73.219)" fill="#ce5a2e"/>
        <path id="Trazado_730046" data-name="Trazado 730046" d="M30.153,158.248a1.375,1.375,0,1,1-1.377-1.374,1.378,1.378,0,0,1,1.377,1.374" transform="translate(12.178 69.717)" fill="#ce5a2e"/>
        <path id="Trazado_730047" data-name="Trazado 730047" d="M24.186,174.046a1.374,1.374,0,1,1-1.374-1.374,1.374,1.374,0,0,1,1.374,1.374" transform="translate(9.527 76.738)" fill="#ce5a2e"/>
        <path id="Trazado_730048" data-name="Trazado 730048" d="M53.666,157.433a1.373,1.373,0,1,1-1.371-1.375,1.371,1.371,0,0,1,1.371,1.375" transform="translate(22.63 69.354)" fill="#ce5a2e"/>
        <path id="Trazado_730049" data-name="Trazado 730049" d="M45.6,166.946a1.375,1.375,0,1,1-1.378-1.377,1.375,1.375,0,0,1,1.378,1.377" transform="translate(19.042 73.581)" fill="#ce5a2e"/>
        <path id="Trazado_730050" data-name="Trazado 730050" d="M37.625,175.646a1.375,1.375,0,1,1-1.371-1.377,1.372,1.372,0,0,1,1.371,1.377" transform="translate(15.499 77.448)" fill="#ce5a2e"/>
        <path id="Trazado_730051" data-name="Trazado 730051" d="M66.55,175a1.372,1.372,0,1,1-1.371-1.377A1.372,1.372,0,0,1,66.55,175" transform="translate(28.356 77.16)" fill="#ce5a2e"/>
        <path id="Trazado_730052" data-name="Trazado 730052" d="M80.263,160.1a1.374,1.374,0,1,1-1.374-1.375,1.373,1.373,0,0,1,1.374,1.375" transform="translate(34.449 70.537)" fill="#ce5a2e"/>
        <path id="Trazado_730053" data-name="Trazado 730053" d="M13.731,159.08a1.374,1.374,0,1,1-1.375-1.375,1.375,1.375,0,0,1,1.375,1.375" transform="translate(4.881 70.086)" fill="#ce5a2e"/>
        <path id="Trazado_730054" data-name="Trazado 730054" d="M43.025,158.69a2.552,2.552,0,1,1-2.551-2.554,2.553,2.553,0,0,1,2.551,2.554" transform="translate(16.852 69.389)" fill="#ce5a2e"/>
        <path id="Trazado_730055" data-name="Trazado 730055" d="M78.59,172.586a2.553,2.553,0,1,1-2.554-2.554,2.552,2.552,0,0,1,2.554,2.554" transform="translate(32.657 75.565)" fill="#ce5a2e"/>
        <path id="Trazado_730056" data-name="Trazado 730056" d="M17.039,172.584a2.553,2.553,0,1,1-2.552-2.552,2.552,2.552,0,0,1,2.552,2.552" transform="translate(5.303 75.565)" fill="#ce5a2e"/>
        <line id="Línea_295" data-name="Línea 295" x2="69.96" transform="translate(29.714 265.623)" fill="none" stroke="#2c3133" stroke-linecap="round" stroke-linejoin="round" stroke-width="2.004"/>
        <rect id="Rectángulo_341222" data-name="Rectángulo 341222" width="129.997" height="129.996" rx="8.266" transform="translate(0 -0.001)" fill="#7e8589"/>
        <path id="Trazado_730057" data-name="Trazado 730057" d="M7.2,43.44V90.963a10.03,10.03,0,0,0,10.03,10.03h89.149a10.03,10.03,0,0,0,10.03-10.03V43.44Z" transform="translate(3.198 19.305)" fill="#8a5e3b"/>
        <path id="Trazado_730058" data-name="Trazado 730058" d="M7.2,23.975a7.616,7.616,0,0,1,6.7,1.434c2.869,2.551,3.188,4.306,7.492,4.784s7.6-6.748,14.031-6.7,7.706,6.748,13.286,6.429,6.962-5.635,12.913-6.058,8.981,5.791,14.615,6.058S82.979,23.868,89.3,23.5s6.139,6.218,13.631,6.139,6.618-6.009,13.472-6.153V62.855H7.2Z" transform="translate(3.198 10.436)" fill="#95dee5"/>
        <path id="Trazado_730059" data-name="Trazado 730059" d="M7.2,32a7.614,7.614,0,0,1,6.7,1.436c2.869,2.549,3.188,4.3,7.492,4.782s7.6-6.748,14.031-6.7,7.706,6.75,13.286,6.432,6.962-5.636,12.913-6.058S70.6,37.682,76.229,37.95s6.75-6.058,13.073-6.432,6.139,6.22,13.631,6.14,6.618-6.01,13.472-6.153" transform="translate(3.198 14)" fill="none" stroke="#79c3e0" stroke-linecap="round" stroke-linejoin="round" stroke-width="1.503"/>
        <path id="Trazado_730060" data-name="Trazado 730060" d="M7.2,40.618a7.616,7.616,0,0,1,6.7,1.434c2.869,2.551,3.188,4.306,7.492,4.784s7.6-6.748,14.031-6.7,7.706,6.748,13.286,6.429,6.962-5.635,12.913-6.058S70.6,46.3,76.229,46.569s6.75-6.058,13.073-6.429,6.139,6.218,13.631,6.137,6.618-6.009,13.472-6.153" transform="translate(3.198 17.832)" fill="none" stroke="#79c3e0" stroke-linecap="round" stroke-linejoin="round" stroke-width="1.503"/>
        <path id="Trazado_730061" data-name="Trazado 730061" d="M7.2,75.118a7.616,7.616,0,0,1,6.7,1.434c2.869,2.552,3.188,4.306,7.492,4.784s7.6-6.748,14.031-6.7S43.121,81.388,48.7,81.07s6.962-5.636,12.913-6.059S70.6,80.8,76.229,81.07s6.75-6.059,13.073-6.431,6.139,6.218,13.631,6.139,6.618-6.009,13.472-6.155" transform="translate(3.198 33.164)" fill="none" stroke="#7c5135" stroke-linecap="round" stroke-linejoin="round" stroke-width="1.503"/>
        <path id="Trazado_730062" data-name="Trazado 730062" d="M25.823,59.69a3.547,3.547,0,1,1-3.547-3.546,3.548,3.548,0,0,1,3.547,3.546" transform="translate(8.323 24.951)" fill="#594b41"/>
        <path id="Trazado_730063" data-name="Trazado 730063" d="M53.534,71.119a3.547,3.547,0,1,1-3.546-3.547,3.547,3.547,0,0,1,3.546,3.547" transform="translate(20.639 30.03)" fill="#594b41"/>
        <path id="Trazado_730064" data-name="Trazado 730064" d="M71.757,58.171a3.547,3.547,0,1,1-3.546-3.546,3.546,3.546,0,0,1,3.546,3.546" transform="translate(28.737 24.276)" fill="#594b41"/>
        <path id="Trazado_730065" data-name="Trazado 730065" d="M35.121,65.753A2.354,2.354,0,1,1,32.765,63.4a2.355,2.355,0,0,1,2.356,2.354" transform="translate(13.516 28.175)" fill="#594b41"/>
        <path id="Trazado_730066" data-name="Trazado 730066" d="M60.168,64.123a2.354,2.354,0,1,1-2.354-2.356,2.355,2.355,0,0,1,2.354,2.356" transform="translate(24.647 27.45)" fill="#594b41"/>
        <path id="Trazado_730067" data-name="Trazado 730067" d="M31.317,55.768A1.268,1.268,0,1,1,30.049,54.5a1.268,1.268,0,0,1,1.268,1.268" transform="translate(12.791 24.221)" fill="#594b41"/>
        <path id="Trazado_730068" data-name="Trazado 730068" d="M25.815,70.339a1.267,1.267,0,1,1-1.267-1.267,1.268,1.268,0,0,1,1.267,1.267" transform="translate(10.346 30.697)" fill="#594b41"/>
        <path id="Trazado_730069" data-name="Trazado 730069" d="M53.008,55.015a1.267,1.267,0,1,1-1.267-1.268,1.267,1.267,0,0,1,1.267,1.268" transform="translate(22.431 23.886)" fill="#594b41"/>
        <path id="Trazado_730070" data-name="Trazado 730070" d="M45.564,63.788A1.268,1.268,0,1,1,44.3,62.52a1.268,1.268,0,0,1,1.268,1.268" transform="translate(19.122 27.785)" fill="#594b41"/>
        <path id="Trazado_730071" data-name="Trazado 730071" d="M38.211,71.814a1.268,1.268,0,1,1-1.268-1.268,1.27,1.27,0,0,1,1.268,1.268" transform="translate(15.854 31.352)" fill="#594b41"/>
        <path id="Trazado_730072" data-name="Trazado 730072" d="M64.893,71.217a1.267,1.267,0,1,1-1.267-1.268,1.267,1.267,0,0,1,1.267,1.268" transform="translate(27.713 31.086)" fill="#594b41"/>
        <path id="Trazado_730073" data-name="Trazado 730073" d="M77.539,57.47A1.267,1.267,0,1,1,76.272,56.2a1.266,1.266,0,0,1,1.267,1.267" transform="translate(33.333 24.977)" fill="#594b41"/>
        <path id="Trazado_730074" data-name="Trazado 730074" d="M16.171,56.534A1.267,1.267,0,1,1,14.9,55.266a1.267,1.267,0,0,1,1.267,1.268" transform="translate(6.06 24.561)" fill="#594b41"/>
        <path id="Trazado_730075" data-name="Trazado 730075" d="M43.193,56.173a2.354,2.354,0,1,1-2.356-2.353,2.354,2.354,0,0,1,2.356,2.353" transform="translate(17.103 23.918)" fill="#594b41"/>
        <path id="Trazado_730076" data-name="Trazado 730076" d="M76,68.993a2.355,2.355,0,1,1-2.356-2.356A2.355,2.355,0,0,1,76,68.993" transform="translate(31.68 29.614)" fill="#594b41"/>
        <path id="Trazado_730077" data-name="Trazado 730077" d="M19.223,68.99a2.354,2.354,0,1,1-2.354-2.353,2.356,2.356,0,0,1,2.354,2.353" transform="translate(6.45 29.614)" fill="#594b41"/>
        <path id="Rectángulo_341223" data-name="Rectángulo 341223" d="M8.266,0H121.731A8.266,8.266,0,0,1,130,8.266V121.731A8.266,8.266,0,0,1,121.731,130H8.267A8.267,8.267,0,0,1,0,121.73V8.266A8.266,8.266,0,0,1,8.266,0Z" transform="translate(0 289.618)" fill="#7e8589"/>
        <path id="Rectángulo_341224" data-name="Rectángulo 341224" d="M7.051,0h96.791a7.05,7.05,0,0,1,7.05,7.05v96.791a7.052,7.052,0,0,1-7.052,7.052H7.052A7.052,7.052,0,0,1,0,103.841V7.051A7.051,7.051,0,0,1,7.051,0Z" transform="translate(9.553 299.17)" fill="#c8d2d6"/>
        <path id="Trazado_730078" data-name="Trazado 730078" d="M89.985,219.337c-6.422.378-7.554,6.8-13.274,6.53s-8.8-6.582-14.84-6.152-7.449,5.828-13.114,6.152-6.962-6.475-13.489-6.53-9.875,7.286-14.248,6.8-4.7-2.266-7.608-4.856a7.73,7.73,0,0,0-6.8-1.457v82.586A10.184,10.184,0,0,0,16.8,312.594H107.32a10.186,10.186,0,0,0,10.186-10.185V219.322c-6.965.147-6.072,6.166-13.683,6.247s-7.419-6.608-13.839-6.233" transform="translate(2.939 97.469)" fill="#95dee5"/>
        <path id="Trazado_730079" data-name="Trazado 730079" d="M23.993,256.824a3.844,3.844,0,1,1-3.845-3.846,3.845,3.845,0,0,1,3.845,3.846" transform="translate(7.246 112.427)" fill="#79c3e0"/>
        <path id="Trazado_730080" data-name="Trazado 730080" d="M54.036,269.216a3.844,3.844,0,1,1-3.844-3.846,3.845,3.845,0,0,1,3.844,3.846" transform="translate(20.597 117.934)" fill="#79c3e0"/>
        <path id="Trazado_730081" data-name="Trazado 730081" d="M73.794,255.176a3.844,3.844,0,1,1-3.842-3.846,3.844,3.844,0,0,1,3.842,3.846" transform="translate(29.378 111.695)" fill="#79c3e0"/>
        <path id="Trazado_730082" data-name="Trazado 730082" d="M34.076,263.4a2.554,2.554,0,1,1-2.554-2.554,2.552,2.552,0,0,1,2.554,2.554" transform="translate(12.874 115.922)" fill="#79c3e0"/>
        <path id="Trazado_730083" data-name="Trazado 730083" d="M61.231,261.628a2.554,2.554,0,1,1-2.554-2.552,2.554,2.554,0,0,1,2.554,2.552" transform="translate(24.942 115.137)" fill="#79c3e0"/>
        <path id="Trazado_730084" data-name="Trazado 730084" d="M29.954,252.57a1.376,1.376,0,1,1-1.378-1.375,1.38,1.38,0,0,1,1.378,1.375" transform="translate(12.089 111.635)" fill="#79c3e0"/>
        <path id="Trazado_730085" data-name="Trazado 730085" d="M23.988,268.368a1.376,1.376,0,1,1-1.374-1.374,1.377,1.377,0,0,1,1.374,1.374" transform="translate(9.438 118.656)" fill="#79c3e0"/>
        <path id="Trazado_730086" data-name="Trazado 730086" d="M53.466,251.754A1.373,1.373,0,1,1,52.1,250.38a1.371,1.371,0,0,1,1.371,1.374" transform="translate(22.541 111.272)" fill="#79c3e0"/>
        <path id="Trazado_730087" data-name="Trazado 730087" d="M45.4,261.267a1.375,1.375,0,1,1-1.378-1.377,1.376,1.376,0,0,1,1.378,1.377" transform="translate(18.954 115.499)" fill="#79c3e0"/>
        <path id="Trazado_730088" data-name="Trazado 730088" d="M37.425,269.969a1.374,1.374,0,1,1-1.374-1.377,1.373,1.373,0,0,1,1.374,1.377" transform="translate(15.41 119.366)" fill="#79c3e0"/>
        <path id="Trazado_730089" data-name="Trazado 730089" d="M66.351,269.321a1.372,1.372,0,1,1-1.372-1.376,1.373,1.373,0,0,1,1.372,1.376" transform="translate(28.268 119.078)" fill="#79c3e0"/>
        <path id="Trazado_730090" data-name="Trazado 730090" d="M80.062,254.416a1.373,1.373,0,1,1-1.369-1.375,1.372,1.372,0,0,1,1.369,1.375" transform="translate(34.36 112.455)" fill="#79c3e0"/>
        <path id="Trazado_730091" data-name="Trazado 730091" d="M13.532,253.4a1.374,1.374,0,1,1-1.375-1.374,1.377,1.377,0,0,1,1.375,1.374" transform="translate(4.792 112.004)" fill="#79c3e0"/>
        <path id="Trazado_730092" data-name="Trazado 730092" d="M42.826,253.012a2.552,2.552,0,1,1-2.551-2.554,2.554,2.554,0,0,1,2.551,2.554" transform="translate(16.764 111.307)" fill="#79c3e0"/>
        <path id="Trazado_730093" data-name="Trazado 730093" d="M78.39,266.906a2.553,2.553,0,1,1-2.554-2.552,2.554,2.554,0,0,1,2.554,2.552" transform="translate(32.568 117.483)" fill="#79c3e0"/>
        <path id="Trazado_730094" data-name="Trazado 730094" d="M16.839,266.906a2.552,2.552,0,1,1-2.552-2.552,2.552,2.552,0,0,1,2.552,2.552" transform="translate(5.215 117.483)" fill="#79c3e0"/>
        <path id="Trazado_730095" data-name="Trazado 730095" d="M89.985,266.811c-6.422.377-7.554,6.8-13.274,6.529s-8.8-6.582-14.84-6.152-7.449,5.828-13.114,6.152-6.962-6.474-13.489-6.529-9.875,7.286-14.248,6.8-4.7-2.268-7.608-4.856a7.725,7.725,0,0,0-6.8-1.457v14.014A10.184,10.184,0,0,0,16.8,291.5H107.32a10.186,10.186,0,0,0,10.186-10.185V266.8c-6.965.146-6.072,6.166-13.683,6.247s-7.419-6.61-13.839-6.233" transform="translate(2.939 118.568)" fill="#ce5a2e"/>
        <path id="Trazado_730096" data-name="Trazado 730096" d="M6.613,274.867a7.73,7.73,0,0,1,6.8,1.457c2.912,2.59,3.237,4.372,7.611,4.858s7.713-6.852,14.243-6.8,7.826,6.852,13.491,6.527,7.069-5.72,13.112-6.152,9.117,5.882,14.84,6.152,6.852-6.152,13.276-6.527,6.231,6.314,13.84,6.231,6.717-6.1,13.68-6.247" transform="translate(2.939 121.933)" fill="none" stroke="#a84020" stroke-linecap="round" stroke-linejoin="round" stroke-width="1.503"/>
        <path id="Trazado_730097" data-name="Trazado 730097" d="M6.613,232.612a7.73,7.73,0,0,1,6.8,1.457c2.912,2.59,3.237,4.371,7.611,4.858s7.713-6.854,14.243-6.8,7.826,6.852,13.491,6.529,7.069-5.721,13.112-6.15,9.117,5.88,14.84,6.15,6.852-6.15,13.276-6.529,6.231,6.314,13.84,6.233,6.717-6.1,13.68-6.247" transform="translate(2.939 103.154)" fill="none" stroke="#79c3e0" stroke-linecap="round" stroke-linejoin="round" stroke-width="1.503"/>
        <path id="Trazado_730098" data-name="Trazado 730098" d="M6.613,241.365a7.73,7.73,0,0,1,6.8,1.457c2.912,2.59,3.237,4.372,7.611,4.858s7.713-6.852,14.243-6.8,7.826,6.852,13.491,6.529,7.069-5.721,13.112-6.153,9.117,5.882,14.84,6.153,6.852-6.153,13.276-6.529,6.231,6.314,13.84,6.233,6.717-6.1,13.68-6.249" transform="translate(2.939 107.044)" fill="none" stroke="#79c3e0" stroke-linecap="round" stroke-linejoin="round" stroke-width="1.503"/>
        <line id="Línea_296" data-name="Línea 296" x2="69.963" transform="translate(29.712 410.064)" fill="none" stroke="#2c3133" stroke-linecap="round" stroke-linejoin="round" stroke-width="2.004"/>
        <rect id="Rectángulo_341225" data-name="Rectángulo 341225" width="129.997" height="129.997" rx="8.266" transform="translate(0 434.06)" fill="#7e8589"/>
        <path id="Rectángulo_341226" data-name="Rectángulo 341226" d="M7.049,0h96.793a7.049,7.049,0,0,1,7.049,7.049v96.8a7.049,7.049,0,0,1-7.049,7.049H7.051A7.051,7.051,0,0,1,0,103.842V7.049A7.049,7.049,0,0,1,7.049,0Z" transform="translate(9.554 443.611)" fill="#c8d2d6"/>
        <path id="Trazado_730099" data-name="Trazado 730099" d="M89.986,319.338c-6.423.376-7.554,6.8-13.277,6.527s-8.794-6.581-14.837-6.152-7.45,5.828-13.114,6.152-6.961-6.474-13.489-6.527-9.877,7.284-14.248,6.8-4.7-2.271-7.608-4.858a7.722,7.722,0,0,0-6.8-1.459v82.589A10.184,10.184,0,0,0,16.8,412.593h90.524A10.183,10.183,0,0,0,117.5,402.412V319.323c-6.964.144-6.069,6.165-13.681,6.246s-7.417-6.607-13.837-6.231" transform="translate(2.939 141.911)" fill="#95dee5"/>
        <path id="Trazado_730100" data-name="Trazado 730100" d="M23.994,359.155a3.845,3.845,0,1,1-3.845-3.845,3.844,3.844,0,0,1,3.845,3.845" transform="translate(7.246 157.905)" fill="#79c3e0"/>
        <path id="Trazado_730101" data-name="Trazado 730101" d="M54.037,371.549a3.845,3.845,0,1,1-3.845-3.851,3.843,3.843,0,0,1,3.845,3.851" transform="translate(20.597 163.41)" fill="#79c3e0"/>
        <path id="Trazado_730102" data-name="Trazado 730102" d="M73.8,357.505a3.845,3.845,0,1,1-3.844-3.842,3.843,3.843,0,0,1,3.844,3.842" transform="translate(29.378 157.173)" fill="#79c3e0"/>
        <path id="Trazado_730103" data-name="Trazado 730103" d="M34.076,365.729a2.554,2.554,0,1,1-2.552-2.554,2.555,2.555,0,0,1,2.552,2.554" transform="translate(12.874 161.4)" fill="#79c3e0"/>
        <path id="Trazado_730104" data-name="Trazado 730104" d="M61.232,363.961a2.554,2.554,0,1,1-2.554-2.554,2.554,2.554,0,0,1,2.554,2.554" transform="translate(24.943 160.614)" fill="#79c3e0"/>
        <path id="Trazado_730105" data-name="Trazado 730105" d="M29.952,354.9a1.375,1.375,0,1,1-1.375-1.374,1.375,1.375,0,0,1,1.375,1.374" transform="translate(12.089 157.112)" fill="#79c3e0"/>
        <path id="Trazado_730106" data-name="Trazado 730106" d="M23.987,370.7a1.375,1.375,0,1,1-1.374-1.374,1.377,1.377,0,0,1,1.374,1.374" transform="translate(9.438 164.134)" fill="#79c3e0"/>
        <path id="Trazado_730107" data-name="Trazado 730107" d="M53.468,354.086A1.374,1.374,0,1,1,52.1,352.71a1.372,1.372,0,0,1,1.372,1.376" transform="translate(22.541 156.749)" fill="#79c3e0"/>
        <path id="Trazado_730108" data-name="Trazado 730108" d="M45.4,363.6a1.376,1.376,0,1,1-1.379-1.379A1.377,1.377,0,0,1,45.4,363.6" transform="translate(18.954 160.976)" fill="#79c3e0"/>
        <path id="Trazado_730109" data-name="Trazado 730109" d="M37.426,372.3a1.374,1.374,0,1,1-1.374-1.377,1.371,1.371,0,0,1,1.374,1.377" transform="translate(15.411 164.843)" fill="#79c3e0"/>
        <path id="Trazado_730110" data-name="Trazado 730110" d="M66.351,371.654a1.372,1.372,0,1,1-1.371-1.377,1.369,1.369,0,0,1,1.371,1.377" transform="translate(28.268 164.556)" fill="#79c3e0"/>
        <path id="Trazado_730111" data-name="Trazado 730111" d="M80.063,356.746a1.374,1.374,0,1,1-1.372-1.374,1.373,1.373,0,0,1,1.372,1.374" transform="translate(34.36 157.932)" fill="#79c3e0"/>
        <path id="Trazado_730112" data-name="Trazado 730112" d="M13.531,355.733a1.374,1.374,0,1,1-1.374-1.374,1.373,1.373,0,0,1,1.374,1.374" transform="translate(4.792 157.482)" fill="#79c3e0"/>
        <path id="Trazado_730113" data-name="Trazado 730113" d="M42.825,355.341a2.552,2.552,0,1,1-2.551-2.551,2.552,2.552,0,0,1,2.551,2.551" transform="translate(16.763 156.785)" fill="#79c3e0"/>
        <path id="Trazado_730114" data-name="Trazado 730114" d="M78.391,369.24a2.554,2.554,0,1,1-2.555-2.554,2.554,2.554,0,0,1,2.555,2.554" transform="translate(32.568 162.96)" fill="#79c3e0"/>
        <path id="Trazado_730115" data-name="Trazado 730115" d="M16.839,369.24a2.552,2.552,0,1,1-2.552-2.554,2.552,2.552,0,0,1,2.552,2.554" transform="translate(5.215 162.96)" fill="#79c3e0"/>
        <path id="Trazado_730116" data-name="Trazado 730116" d="M6.614,332.613a7.737,7.737,0,0,1,6.8,1.456c2.912,2.59,3.237,4.372,7.609,4.858s7.715-6.852,14.245-6.8,7.824,6.855,13.491,6.532,7.069-5.721,13.112-6.153,9.119,5.885,14.838,6.153,6.854-6.153,13.277-6.532,6.231,6.316,13.84,6.236,6.717-6.1,13.679-6.25" transform="translate(2.939 147.594)" fill="none" stroke="#79c3e0" stroke-linecap="round" stroke-linejoin="round" stroke-width="1.503"/>
        <path id="Trazado_730117" data-name="Trazado 730117" d="M6.614,341.367a7.727,7.727,0,0,1,6.8,1.456c2.912,2.59,3.237,4.372,7.609,4.855s7.715-6.852,14.245-6.8,7.824,6.855,13.491,6.529,7.069-5.718,13.112-6.15,9.119,5.882,14.838,6.15,6.854-6.15,13.277-6.529,6.231,6.316,13.84,6.236,6.717-6.1,13.679-6.247" transform="translate(2.939 151.484)" fill="none" stroke="#79c3e0" stroke-linecap="round" stroke-linejoin="round" stroke-width="1.503"/>
        <line id="Línea_297" data-name="Línea 297" x2="69.963" transform="translate(29.713 554.504)" fill="none" stroke="#2c3133" stroke-linecap="round" stroke-linejoin="round" stroke-width="2.004"/>
        <path id="Trazado_730118" data-name="Trazado 730118" d="M26.859,338.909s-4.494,4.878-4.339,9.27a4.137,4.137,0,0,0,4.339,3.9,4.136,4.136,0,0,0,4.338-3.9c.156-4.392-4.338-9.27-4.338-9.27" transform="translate(10.007 150.616)" fill="#f4c776"/>
        <path id="Trazado_730119" data-name="Trazado 730119" d="M50,326.591s-4.5,4.878-4.34,9.267a4.363,4.363,0,0,0,8.677,0c.155-4.39-4.336-9.267-4.336-9.267" transform="translate(20.291 145.142)" fill="#f4c776"/>
        <path id="Trazado_730120" data-name="Trazado 730120" d="M63.836,345.9s-4.5,4.878-4.339,9.27a4.363,4.363,0,0,0,8.677,0c.156-4.392-4.338-9.27-4.338-9.27" transform="translate(26.44 153.722)" fill="#f4c776"/>
        <path id="Trazado_730121" data-name="Trazado 730121" d="M47.684,356.591s-4.494,4.875-4.339,9.265a4.363,4.363,0,0,0,8.677,0c.156-4.39-4.338-9.265-4.338-9.265" transform="translate(19.261 158.474)" fill="#f4c776"/>
        <path id="Trazado_730122" data-name="Trazado 730122" d="M19.61,366.39s-4.494,4.881-4.339,9.267a4.137,4.137,0,0,0,4.339,3.9,4.137,4.137,0,0,0,4.338-3.9c.155-4.387-4.338-9.267-4.338-9.267" transform="translate(6.785 162.829)" fill="#f4c776"/>
        <path id="Trazado_730123" data-name="Trazado 730123" d="M72.765,367.2s-4.5,4.878-4.339,9.267a4.362,4.362,0,0,0,8.677,0c.155-4.39-4.338-9.267-4.338-9.267" transform="translate(30.408 163.187)" fill="#f4c776"/>
      </g>
    </g>
  </g>
</svg>
